<?xml version="1.0" encoding="utf-8"?>
<!-- Generator: Adobe Illustrator 19.2.1, SVG Export Plug-In . SVG Version: 6.00 Build 0)  -->
<svg version="1.1" id="Layer_1" xmlns="http://www.w3.org/2000/svg" xmlns:xlink="http://www.w3.org/1999/xlink" x="0px" y="0px"
	 viewBox="0 0 450.1 76.1" style="enable-background:new 0 0 450.1 76.1;" xml:space="preserve">
<style type="text/css">
	.st0{fill:#E62E26;}
</style>
<g>
	<g>
		<path class="st0" d="M100.7,63.1v-8.8c-1.9,1.5-4,2.3-6.3,2.3c-3,0-5.3-1.2-6.9-3.6c-1.5-2.4-2.3-5.7-2.3-9.8c0-2.1,0.3-4,0.8-5.6
			c0.5-1.7,1.3-3.1,2.2-4.2c0.9-1.2,2-2,3.2-2.7c1.2-0.6,2.5-0.9,3.9-0.9c2.7,0,5.1,0.8,7,2.5c1-1.2,2.4-2,4.2-2.2
			c0.4,0.3,0.9,0.9,1.3,1.6s0.8,1.3,0.9,1.9c-1,0.8-1.5,2.2-1.5,4.3v29.2l-0.4,0.4h-2.6c-1.3,0-2.3-0.3-2.8-0.9
			C101,65.7,100.7,64.6,100.7,63.1z M96,51.1c1.8,0,3.3-0.8,4.8-2.3V36.9c-1.5-1.3-2.8-2-4.2-2c-1.4,0-2.5,0.7-3.2,2.1
			c-0.8,1.4-1.2,3.5-1.2,6.2s0.4,4.7,1.1,6C93.9,50.4,94.9,51.1,96,51.1z"/>
		<path class="st0" d="M113.8,47.7V36.4c0-2.1-0.4-3.8-1.1-4.9c1.1-1,2.5-1.4,4-1.4c1.5,0,2.5,0.4,3.1,1.1c0.6,0.7,0.8,1.8,0.8,3.2
			v12.1c0,1.5,0.2,2.5,0.6,3.2c0.4,0.6,1.1,1,2.1,1c1.8,0,3.5-0.8,5.1-2.4V30.4c0.8-0.2,1.9-0.3,3.3-0.3c1.5,0,2.6,0.1,3.4,0.3v18.4
			c0,2,0.5,3.5,1.4,4.3c-0.2,0.6-0.5,1.3-0.9,1.9c-0.4,0.7-0.9,1.2-1.4,1.5c-2.5-0.2-4.3-1.5-5.2-3.7c-2.7,2.5-5.4,3.7-8.2,3.7
			c-2.3,0-4.1-0.8-5.3-2.4C114.4,52.5,113.8,50.4,113.8,47.7z"/>
		<path class="st0" d="M149.5,35.6v20.5c-0.5,0.1-1.1,0.2-1.6,0.2c-0.6,0-1.1,0.1-1.7,0.1c-0.6,0-1.2,0-1.7-0.1
			c-0.6,0-1.1-0.1-1.7-0.2v-18c0-1.9-0.8-2.8-2.3-2.8h-0.7c-0.2-0.8-0.3-1.6-0.3-2.4c0-0.8,0.1-1.6,0.3-2.4c0.8-0.1,1.5-0.1,2.2-0.2
			c0.7-0.1,1.3-0.1,1.7-0.1h0.9c1.6,0,2.8,0.5,3.7,1.5C149,32.6,149.5,34,149.5,35.6z M141.6,20.4c0.8-0.4,1.9-0.7,3.4-0.7
			c0.9,0,1.6,0.1,2.1,0.2c0.5,0.1,0.9,0.3,1.2,0.5c0.2,0.2,0.4,0.5,0.5,1.1c0.1,0.5,0.1,1.1,0.1,1.6c-0.1,1.8-0.3,2.7-0.6,2.9
			s-1.4,0.3-3.2,0.5c-1.9-0.1-3.1-0.3-3.4-0.8c-0.3-0.4-0.5-1.3-0.5-2.6C141.1,22.1,141.3,21.2,141.6,20.4z"/>
		<path class="st0" d="M169.2,41.1c0-2.1-0.2-3.6-0.7-4.7c-0.5-1.1-1.5-1.6-3-1.6c-2.7,0-4.1,2.9-4.1,8.6c0,2.8,0.4,4.9,1.2,6.2
			c0.8,1.3,2.1,1.9,3.8,1.9c0.9,0,1.9-0.2,2.9-0.6s2.1-1,3.2-1.8c0.6,0.3,1.1,0.9,1.6,1.7s0.9,1.5,1,2.2c-1.2,1.2-2.6,2.1-4.3,2.8
			s-3.5,1.1-5.4,1.1c-3.6,0-6.4-1.2-8.2-3.7c-1.9-2.5-2.8-5.9-2.8-10.2c0-2.2,0.3-4.1,0.9-5.8c0.6-1.7,1.4-3,2.5-4.1
			c1-1.1,2.2-1.9,3.5-2.5c1.3-0.6,2.7-0.8,4.2-0.8c1.5,0,2.9,0.2,4.1,0.6c1.2,0.4,2.3,1,3.1,1.8c0.8,0.7,1.5,1.6,2,2.6
			c0.5,1,0.7,2.1,0.7,3.2c0,1.1-0.3,2-0.9,2.6c-0.6,0.6-1.4,0.9-2.6,0.9C170.8,41.3,169.9,41.3,169.2,41.1z"/>
		<path class="st0" d="M198.3,46.1l1.5,4c0.8,2.2,1.6,3.6,2.5,4.2c-1.2,1.4-2.7,2.1-4.6,2.1c-1,0-1.8-0.2-2.3-0.7s-1-1.3-1.5-2.6
			l-1.8-4.7c-0.4-1.2-0.9-2-1.5-2.4c-0.5-0.4-1.2-0.6-1.9-0.6c-0.7,0-1.5,0-2.3,0.1v10.6c-1,0.2-2.1,0.3-3.3,0.3
			c-1.2,0-2.3-0.1-3.3-0.3V18.3l0.3-0.4h2.6c1.3,0,2.3,0.3,2.8,1c0.5,0.6,0.8,1.7,0.8,3.2v17.7l1.3-0.1c0.6,0,1-0.3,1.3-0.8l3.6-6.2
			c0.9-1.7,2.3-2.6,4-2.6c0.8,0,2.1,0,3.7,0.1l0.3,0.4L196,39c-0.6,1.1-1.3,1.9-2.2,2.5C195.9,42.3,197.4,43.8,198.3,46.1z"/>
		<path class="st0" d="M208,54.8V18.3l0.3-0.3h1.4c0.8,0,1.4,0.2,1.7,0.6c0.3,0.4,0.4,1.1,0.4,2v12.8c2.1-2.1,4.6-3.2,7.4-3.2
			c2.8,0,5,1.2,6.5,3.5c1.5,2.3,2.3,5.6,2.3,9.8c0,2.1-0.3,3.9-0.9,5.5c-0.6,1.6-1.4,3-2.4,4.1c-1,1.1-2.2,1.9-3.5,2.5
			c-1.3,0.6-2.7,0.9-4.2,0.9C214.1,56.5,211.1,55.9,208,54.8z M211.8,37.2v15.4c1.5,0.6,3.3,0.9,5.2,0.9c2,0,3.7-0.9,5-2.6
			c1.3-1.8,2-4.3,2-7.6c0-1.7-0.1-3.1-0.4-4.3c-0.3-1.2-0.7-2.2-1.2-3s-1.1-1.4-1.7-1.8c-0.6-0.4-1.3-0.6-2-0.6
			c-1.4,0-2.8,0.3-3.9,1C213.6,35.3,212.6,36.2,211.8,37.2z"/>
		<path class="st0" d="M250.6,54c-1.8,1.8-4.2,2.7-7.1,2.7c-1.7,0-3.3-0.3-4.6-1c-1.3-0.7-2.5-1.6-3.4-2.7c-0.9-1.2-1.6-2.6-2.1-4.2
			c-0.5-1.6-0.7-3.4-0.7-5.4s0.2-3.8,0.7-5.4s1.2-3,2.1-4.2c0.9-1.2,2-2.1,3.4-2.7c1.3-0.7,2.9-1,4.6-1c1.7,0,3.3,0.3,4.6,1
			c1.3,0.7,2.5,1.6,3.4,2.7s1.6,2.6,2.1,4.2s0.7,3.4,0.7,5.4C254.3,48,253,51.6,250.6,54z M243.5,53.7c2.2,0,3.9-0.9,5.1-2.8
			c1.2-1.9,1.7-4.4,1.7-7.5c0-1.4-0.1-2.7-0.4-4c-0.3-1.3-0.7-2.4-1.2-3.3c-0.6-0.9-1.3-1.7-2.1-2.3c-0.9-0.6-1.9-0.8-3.1-0.8
			c-1.2,0-2.2,0.3-3,0.8c-0.8,0.5-1.6,1.3-2.1,2.2c-0.6,0.9-1,2-1.2,3.3s-0.4,2.6-0.4,4.1s0.1,2.8,0.4,4s0.7,2.3,1.2,3.3
			c0.5,0.9,1.2,1.7,2.1,2.2C241.3,53.4,242.3,53.7,243.5,53.7z"/>
		<path class="st0" d="M265.2,34.2v21.9c-0.5,0.1-1.2,0.2-1.9,0.2c-0.8,0-1.4-0.1-1.9-0.2v-20c0-1-0.2-1.6-0.5-2
			c-0.3-0.3-0.9-0.5-1.7-0.5h-0.5c-0.1-0.4-0.2-0.8-0.2-1.4c0-0.6,0.1-1,0.2-1.5c0.7-0.1,1.2-0.1,1.6-0.2s0.7-0.1,1-0.1h0.4
			c1.1,0,1.9,0.3,2.5,1C264.9,32.2,265.2,33.1,265.2,34.2z M260.2,21.8c0.6-0.3,1.3-0.5,2.4-0.5c1,0,1.7,0.2,2.1,0.5
			c0.4,0.3,0.6,1,0.6,2c0,1-0.2,1.7-0.6,2c-0.4,0.3-1.1,0.5-2,0.5c-0.8,0-1.5-0.1-2-0.4s-0.8-1-0.8-2.1
			C259.8,22.9,259.9,22.3,260.2,21.8z"/>
		<path class="st0" d="M279.3,53.1h2.2c0.1,0.3,0.2,0.7,0.3,1.1c0.1,0.4,0.1,0.7,0.1,1.1c0,0.2,0,0.4,0,0.5c0,0.1,0,0.2,0,0.3
			c-0.6,0.1-1.1,0.2-1.6,0.3s-1,0.1-1.6,0.1c-1.4,0-2.6-0.3-3.6-1c-1-0.6-1.5-1.8-1.5-3.4V18.3l0.3-0.3h1.4c0.8,0,1.4,0.2,1.7,0.6
			c0.3,0.4,0.4,1.1,0.4,2v30.2C277.4,52.4,278,53.1,279.3,53.1z"/>
		<path class="st0" d="M305.6,44.6h-16.1c0.2,5.9,2.4,8.8,6.7,8.8c2.3,0,4.8-0.7,7.5-2.2c0.8,0.7,1.2,1.6,1.4,2.6
			c-2.8,1.9-6,2.9-9.5,2.9c-1.8,0-3.3-0.3-4.6-1c-1.3-0.7-2.3-1.6-3.1-2.8c-0.8-1.2-1.4-2.6-1.8-4.2c-0.4-1.6-0.6-3.4-0.6-5.3
			c0-2,0.2-3.8,0.7-5.4s1.1-3,2-4.2c0.9-1.2,2-2.1,3.2-2.7c1.3-0.7,2.7-1,4.3-1c1.6,0,3,0.3,4.3,0.9c1.3,0.6,2.3,1.3,3.2,2.3
			c0.8,1,1.5,2.2,1.9,3.5c0.4,1.4,0.7,2.8,0.7,4.4c0,0.6,0,1.2-0.1,1.8C305.7,43.5,305.6,44,305.6,44.6z M289.5,41.6h12.4v-0.7
			c0-2.4-0.5-4.3-1.5-5.7c-1-1.4-2.5-2.2-4.5-2.2c-2,0-3.5,0.8-4.6,2.3C290.3,36.9,289.7,39,289.5,41.6z"/>
		<path class="st0" d="M311.5,32.5c0.2-0.9,0.8-1.6,1.7-2.2c1.9,0.7,3.2,2.3,3.7,4.6c1.4-3,3.7-4.6,6.9-4.6c0.7,0,1.5,0.1,2.4,0.2
			c0,1.5-0.3,2.7-0.9,3.6c-0.4,0-1-0.1-1.8-0.1c-2.8,0-4.9,1.6-6.3,4.7v17.2c-0.5,0.1-1.2,0.2-1.9,0.2c-0.8,0-1.4-0.1-1.9-0.2V37.8
			C313.3,35.4,312.7,33.7,311.5,32.5z"/>
		<path class="st0" d="M346.1,64.6V53.3c-2.1,2.1-4.6,3.2-7.5,3.2c-2.8,0-5-1.2-6.5-3.5c-1.5-2.3-2.3-5.6-2.3-9.8
			c0-2.1,0.3-4,0.8-5.6s1.3-3,2.1-4.1c0.9-1.1,1.9-2,3.1-2.6c1.2-0.6,2.4-0.9,3.7-0.9c2.7,0,5,0.9,7.1,2.7c0.6-1.2,1.5-2,2.7-2.4
			c0.8,0.5,1.4,1.2,1.7,2c-1,0.9-1.4,2.8-1.4,5.5v29l-0.3,0.3h-1.4c-0.8,0-1.3-0.2-1.6-0.6S346.1,65.6,346.1,64.6z M346.1,49.6V35.8
			c-1.9-1.7-3.9-2.5-5.8-2.5c-1.9,0-3.4,0.8-4.7,2.5c-1.2,1.7-1.8,4.2-1.8,7.6c0,3.3,0.5,5.8,1.5,7.4s2.3,2.4,3.7,2.4
			c1.4,0,2.8-0.3,4-1C344.2,51.6,345.2,50.7,346.1,49.6z"/>
		<path class="st0" d="M358.1,48.5V35.6c0-1.8-0.2-3.3-0.6-4.4c0.6-0.6,1.4-0.8,2.4-0.8c1.3,0,2,0.8,2,2.5v14.3
			c0,2.2,0.3,3.7,0.8,4.6c0.6,0.9,1.5,1.3,2.9,1.3c1.4,0,2.8-0.4,4.3-1.1c1.5-0.7,2.7-1.7,3.7-2.9V30.7c0.2-0.1,0.5-0.1,0.8-0.2
			c0.3,0,0.7-0.1,1.1-0.1s0.7,0,1.1,0.1c0.3,0,0.6,0.1,0.9,0.2V49c0,2.8,0.5,4.6,1.5,5.5c-0.3,1-0.9,1.6-1.8,2
			c-1.7-0.6-2.8-1.8-3.3-3.8c-1.2,1.2-2.6,2.1-4.2,2.8c-1.6,0.7-3.3,1.1-4.9,1.1c-2.3,0-4-0.7-5-2.2
			C358.7,52.9,358.1,50.9,358.1,48.5z"/>
		<path class="st0" d="M402.1,54c-1.8,1.8-4.2,2.7-7.1,2.7c-1.7,0-3.3-0.3-4.6-1c-1.3-0.7-2.5-1.6-3.4-2.7c-0.9-1.2-1.6-2.6-2.1-4.2
			c-0.5-1.6-0.7-3.4-0.7-5.4s0.2-3.8,0.7-5.4s1.2-3,2.1-4.2c0.9-1.2,2-2.1,3.4-2.7c1.3-0.7,2.9-1,4.6-1c1.7,0,3.3,0.3,4.6,1
			c1.3,0.7,2.5,1.6,3.4,2.7s1.6,2.6,2.1,4.2s0.7,3.4,0.7,5.4C405.8,48,404.6,51.6,402.1,54z M395,53.7c2.2,0,3.9-0.9,5.1-2.8
			c1.2-1.9,1.7-4.4,1.7-7.5c0-1.4-0.1-2.7-0.4-4c-0.3-1.3-0.7-2.4-1.2-3.3c-0.6-0.9-1.3-1.7-2.1-2.3c-0.9-0.6-1.9-0.8-3.1-0.8
			c-1.2,0-2.2,0.3-3,0.8c-0.8,0.5-1.6,1.3-2.1,2.2c-0.6,0.9-1,2-1.2,3.3s-0.4,2.6-0.4,4.1s0.1,2.8,0.4,4s0.7,2.3,1.2,3.3
			c0.5,0.9,1.2,1.7,2.1,2.2C392.8,53.4,393.8,53.7,395,53.7z"/>
		<path class="st0" d="M423.1,30.7c0.1,0.5,0.2,1,0.2,1.5c0,0.5-0.1,1-0.2,1.5l-6.6-0.1V51c0,1.4,0.7,2.2,2,2.2h3.9
			c0.2,0.6,0.4,1.2,0.4,1.8c0,0.6,0,1-0.1,1.1c-1.6,0.2-3.2,0.3-4.9,0.3c-3.3,0-5-1.4-5-4.3V33.6l-3.7,0.1c-0.1-0.5-0.2-1-0.2-1.5
			c0-0.5,0.1-1,0.2-1.5l3.7,0.1v-5.4c0-0.9,0.1-1.6,0.4-2c0.3-0.4,0.8-0.6,1.6-0.6h1.4l0.3,0.3v7.8L423.1,30.7z"/>
		<path class="st0" d="M446.5,44.6h-16.1c0.2,5.9,2.4,8.8,6.7,8.8c2.3,0,4.8-0.7,7.5-2.2c0.8,0.7,1.2,1.6,1.4,2.6
			c-2.8,1.9-6,2.9-9.5,2.9c-1.8,0-3.3-0.3-4.6-1c-1.3-0.7-2.3-1.6-3.1-2.8c-0.8-1.2-1.4-2.6-1.8-4.2c-0.4-1.6-0.6-3.4-0.6-5.3
			c0-2,0.2-3.8,0.7-5.4s1.1-3,2-4.2c0.9-1.2,2-2.1,3.2-2.7c1.3-0.7,2.7-1,4.3-1c1.6,0,3,0.3,4.3,0.9c1.3,0.6,2.3,1.3,3.2,2.3
			c0.8,1,1.5,2.2,1.9,3.5c0.4,1.4,0.7,2.8,0.7,4.4c0,0.6,0,1.2-0.1,1.8C446.6,43.5,446.5,44,446.5,44.6z M430.4,41.6h12.4v-0.7
			c0-2.4-0.5-4.3-1.5-5.7c-1-1.4-2.5-2.2-4.5-2.2c-2,0-3.5,0.8-4.6,2.3C431.2,36.9,430.6,39,430.4,41.6z"/>
	</g>
	<path class="st0" d="M44.1,9.6c-2.8-2.7-5.6-5.9-7.2-9.3c1.3,5.6,5,13.6,14.2,24.2c6.3,7.3,8,14.3,7.4,20.4
		c-0.7-4.6-2.8-9.6-7.3-14.7c-8.1-9.3-11.9-16.6-13.6-22c-0.4,0-0.7-0.1-1.1-0.1C35.4,5.8,34.4,3,34.3,0c0,0-0.1,0.3-0.3,0.7
		c-0.8,2.8-2.4,13.4,14.3,32.6c18.3,21.1-2.8,40-2.8,40c10.3-23.2-5.7-32.9-12.9-45.9c-4.2-7.5-3.9-14.2-2.4-19.1
		C13.2,10.2,0,24.6,0,42.1c0,11.4,5.6,21.5,14.2,27.6c-4.9-5.5-6.4-14.1-3-23.9c5.4-15.9,2.1-19,2.1-19c11.6,7.5,3.9,19.8,4.4,25.8
		c0.8,9.3,16.8,8.4,7.3-10.4C17.3,27,22.5,15.3,26.3,9.7c-1.6,4.8-2.2,11.5,1.8,19.1c6.9,13.1,25,24.4,11.9,42.4
		c-2,2.8-5.2,4.2-8.3,4.7c0.7,0,1.5,0.1,2.3,0.1c18.8,0,34-15.2,34-34C68,26.8,57.9,13.9,44.1,9.6z"/>
</g>
</svg>
